<svg xmlns="http://www.w3.org/2000/svg" style="display: none" viewBox="0 0 24 24">
<path
          fill="#fff"
          d="M0.137 0H23.863A0.137 0.137 0 0 1 24 0.137V23.863A0.137 0.137 0 0 1 23.863 24H0.137A0.137 0.137 0 0 1 0 23.863V0.137A0.137 0.137 0 0 1 0.137 0z"
        />
        <path fill="#a6ce39" d="M24 12A12 12 0 0 1 12 24A12 12 0 0 1 0 12A12 12 0 0 1 24 12z" />
        <path
          d="M8.109 17.438h-1.453V7.406h1.453zm2.109 -10.031h3.891c3.703 0 5.344 2.672 5.344 5.016 0 2.578 -2.016 5.016 -5.344 5.016h-3.938zm1.453 8.766h2.297c3.281 0 4.031 -2.484 4.031 -3.703 0 -2.016 -1.266 -3.703 -4.078 -3.703h-2.203zm-3.328 -10.828c0 0.516 -0.422 0.938 -0.938 0.938s-0.938 -0.422 -0.938 -0.938a0.938 0.938 0 0 1 0.938 -0.938c0.516 0 0.938 0.422 0.938 0.938"
          fill="#fff"
        />
</svg>