<svg width="402" height="39" xmlns="http://www.w3.org/2000/svg" xmlns:xlink="http://www.w3.org/1999/xlink" overflow="hidden"><defs><clipPath id="clip0"><path d="M439 348 841 348 841 387 439 387Z" fillRule="evenodd" clipRule="evenodd"/></clipPath><clipPath id="clip1"><path d="M440 348 840 348 840 386 440 386Z" fillRule="evenodd" clipRule="evenodd"/></clipPath><clipPath id="clip2"><path d="M440 348 841 348 841 386 440 386Z" fillRule="evenodd" clipRule="evenodd"/></clipPath><clipPath id="clip3"><path d="M440 260 841 260 841 460 440 460Z" fillRule="evenodd" clipRule="evenodd"/></clipPath></defs><g clip-path="url(#clip0)" transform="translate(-439 -348)"><g clip-path="url(#clip1)"><g clip-path="url(#clip2)"><g clip-path="url(#clip3)"><path d="M3.81455 119.861 13.8113 92.8526 18.1958 92.6333 27.9295 119.861 31.5687 120.694 31.5687 123.325 18.8535 123.325 18.8535 120.694 22.9311 119.861 21.265 114.994 9.86521 114.994 8.15524 119.861 12.2767 120.694 12.2767 123.325 0.219227 123.325 0.219227 120.694ZM20.0812 111.487 15.6528 98.2894 11.049 111.487 20.0812 111.487ZM43.784 100.087 44.1786 103.2C45.2309 102.279 48.6947 99.6486 52.3339 99.6486 57.1568 99.6486 59.3491 102.718 59.3491 107.541L59.3491 119.817 62.6375 120.914 62.6375 123.325 52.1146 123.325 52.1146 120.914 54.9646 119.817 54.9646 107.979C54.9646 104.91 53.8684 103.375 51.0185 103.375 47.2916 103.375 44.6609 106.883 44.6609 106.883L44.6609 119.817 47.5109 120.914 47.5109 123.325 36.5495 123.325 36.5495 120.914 40.2764 119.817 40.2764 103.595 36.5495 102.718 36.5495 100.306ZM92.8295 120.694 92.8295 123.106 85.3757 123.325 85.025 120.826C83.7535 122.097 81.4735 123.764 78.1413 123.764 71.7837 123.764 68.9337 119.16 68.9337 112.364 68.9337 104.91 72.6606 99.6486 80.5527 99.6486 82.175 99.6486 83.5781 99.9555 84.7181 100.35L84.7181 93.0718 80.9912 92.1949 80.9912 89.7834 89.1026 89.5642 89.1026 119.817ZM84.7181 116.968 84.7181 104.033C84.7181 104.033 83.1835 103.156 80.1143 103.156 75.0282 103.156 73.5375 107.102 73.5375 111.925 73.5375 116.748 75.0721 120.256 79.0182 120.256 82.745 120.256 84.7181 116.968 84.7181 116.968ZM105.922 100.087 106.316 103.288C107.412 102.06 109.955 99.6486 112.937 99.6486 115.129 99.6486 116.883 100.306 116.883 100.306L116.664 106.664 113.814 106.664 113.156 103.375C109.868 103.375 107.763 105.524 106.799 106.795L106.799 119.817 111.183 120.914 111.183 123.325 98.6872 123.325 98.6872 120.914 102.414 119.817 102.414 103.595 98.6872 102.718 98.6872 100.306ZM124.933 92.8526C124.933 90.8795 126.248 89.7834 127.783 89.7834 129.537 89.7834 130.633 90.6603 130.633 92.8526 130.633 94.8256 129.098 95.9218 127.783 95.9218 126.029 95.9218 124.933 94.8256 124.933 92.8526ZM133.483 120.914 133.483 123.325 122.083 123.325 122.083 120.914 125.81 119.817 125.81 103.595 122.083 102.718 122.083 100.306 130.194 100.087 130.194 119.817ZM142.629 92.8526C142.629 90.8795 143.944 89.7834 145.479 89.7834 147.233 89.7834 148.329 90.6603 148.329 92.8526 148.329 94.8256 146.794 95.9218 145.479 95.9218 143.725 95.9218 142.629 94.8256 142.629 92.8526ZM151.179 120.914 151.179 123.325 139.779 123.325 139.779 120.914 143.506 119.817 143.506 103.595 139.779 102.718 139.779 100.306 147.89 100.087 147.89 119.817ZM170.787 123.325 170.787 120.694 174.513 119.817 174.513 96.141 170.787 95.2641 170.787 92.8526 183.282 92.6333 183.282 95.2641 179.117 96.141 179.117 105.787 183.151 105.787 190.736 92.8526 197.971 92.6333 197.971 95.2641 193.63 96.141 186.965 107.234 195.998 119.817 199.725 120.694 199.725 123.325 187.229 123.325 187.229 120.694 190.955 119.817 183.414 109.295 179.117 109.295 179.117 119.817 183.282 120.694 183.282 123.325 170.787 123.325ZM229.478 120.694 229.478 123.106 222.243 123.325 221.805 120.256C220.753 121.177 217.289 123.764 213.694 123.764 208.871 123.764 206.678 120.738 206.678 115.915L206.678 103.595 202.952 102.718 202.952 100.306 211.063 100.087 211.063 115.477C211.063 118.546 212.159 120.037 215.009 120.037 218.736 120.037 221.367 116.573 221.367 116.573L221.367 103.595 217.64 102.718 217.64 100.306 225.751 100.087 225.751 119.817ZM242.57 100.087 242.965 103.288C244.061 102.06 246.604 99.6486 249.585 99.6486 251.778 99.6486 253.532 100.306 253.532 100.306L253.312 106.664 250.462 106.664 249.805 103.375C246.516 103.375 244.412 105.524 243.447 106.795L243.447 119.817 247.832 120.914 247.832 123.325 235.336 123.325 235.336 120.914 239.063 119.817 239.063 103.595 235.336 102.718 235.336 100.306ZM269.912 99.6486C276.489 99.6486 280.216 104.252 280.216 111.268 280.216 118.721 275.831 123.764 269.255 123.764 262.678 123.764 258.732 119.817 258.732 111.925 258.732 104.472 263.335 99.6486 269.912 99.6486ZM269.693 103.156C265.308 103.156 263.335 106.006 263.335 111.706 263.335 116.968 265.089 120.256 269.474 120.256 273.858 120.256 275.612 117.187 275.612 111.487 275.612 106.664 274.078 103.156 269.693 103.156ZM302.516 107.322 301.858 103.595C301.858 103.595 300.104 103.156 297.912 103.156 293.747 103.156 291.335 105.787 291.335 111.268 291.335 117.187 293.966 120.256 298.131 120.256 302.296 120.256 304.927 117.625 304.927 117.625L306.462 120.256C306.462 120.256 302.516 123.764 297.693 123.764 290.458 123.764 286.731 119.16 286.731 111.706 286.731 104.691 291.116 99.6486 298.131 99.6486 302.077 99.6486 305.585 101.402 305.585 101.402L305.366 107.322 302.516 107.322ZM319.554 89.5642 319.554 102.805C320.913 101.665 323.982 99.6486 327.227 99.6486 332.05 99.6486 334.242 102.718 334.242 107.541L334.242 119.817 337.531 120.914 337.531 123.325 327.008 123.325 327.008 120.914 329.858 119.861 329.858 107.979C329.858 104.91 328.893 103.375 326.043 103.375 322.316 103.375 319.554 106.883 319.554 106.883L319.554 119.817 322.404 120.914 322.404 123.325 311.443 123.325 311.443 120.914 315.169 119.817 315.169 93.0718 311.443 92.1949 311.443 89.7834ZM354.788 108.856 358.077 103.332 356.103 102.718 356.103 100.306 365.749 100.087 365.749 102.718 362.636 103.244 362.593 103.244 358.077 109.952 363.733 119.817 363.776 119.817 367.065 120.914 367.065 123.325 361.146 123.325 354.876 112.145 351.061 112.145 351.061 119.817 353.911 120.914 353.911 123.325 342.95 123.325 342.95 120.914 346.677 119.817 346.677 93.0718 342.95 92.1949 342.95 89.7834 351.061 89.5642 351.061 108.856 354.788 108.856ZM373.799 106.883 373.58 101.402C373.58 101.402 378.403 99.6486 382.13 99.6486 387.216 99.6486 390.241 101.402 390.241 106.445L390.241 119.817 393.749 120.694 393.749 123.106 386.953 123.325 386.032 120.256C384.542 121.747 381.911 123.764 378.842 123.764 374.676 123.764 372.265 121.352 372.265 117.187 372.265 112.145 376.211 110.391 382.349 110.391L385.857 110.391 385.857 106.883C385.857 104.252 384.322 102.937 381.692 102.937 379.061 102.937 377.263 103.595 377.263 103.595L376.649 106.883 373.799 106.883ZM385.857 113.241 382.788 113.241C378.403 113.241 376.737 114.337 376.737 116.968 376.737 118.941 377.965 120.256 379.938 120.256 383.226 120.256 385.857 116.748 385.857 116.748L385.857 113.241Z" fill="#7273C4" transform="matrix(1.00353 0 -0 1 440 260.044)"/></g></g></g></g></svg>